<?xml version="1.0" standalone="no"?>
<!DOCTYPE svg PUBLIC "-//W3C//DTD SVG 20010904//EN"
 "http://www.w3.org/TR/2001/REC-SVG-20010904/DTD/svg10.dtd">
<svg version="1.0" xmlns="http://www.w3.org/2000/svg"
 width="640.000000pt" height="640.000000pt" viewBox="0 0 640.000000 640.000000"
 preserveAspectRatio="xMidYMid meet">
<metadata>
Created by potrace 1.11, written by Peter Selinger 2001-2013
</metadata>
<g transform="translate(0.000000,640.000000) scale(0.100000,-0.100000)"
fill="#000000" stroke="none">
<path d="M3078 5982 c-107 -3 -108 -3 -108 -27 0 -14 5 -25 11 -25 6 0 8 -7 5
-16 -3 -8 1 -22 9 -31 8 -8 13 -19 10 -23 -3 -5 -1 -17 4 -27 10 -19 24 -54
25 -65 1 -3 4 -10 9 -14 4 -4 7 -16 7 -26 0 -10 5 -18 11 -18 5 0 8 -4 4 -9
-3 -5 0 -15 7 -23 10 -10 13 -116 12 -473 -1 -253 2 -464 6 -470 4 -5 7 -244
7 -530 0 -315 3 -528 9 -540 6 -12 10 -222 9 -532 0 -282 3 -513 7 -513 12 0
10 -848 -2 -855 -6 -4 -9 -12 -8 -18 1 -7 -3 -22 -10 -35 -7 -12 -10 -22 -6
-22 3 0 1 -7 -6 -15 -6 -8 -9 -19 -5 -25 3 -5 -1 -10 -9 -10 -9 0 -15 -3 -14
-7 1 -5 -3 -19 -9 -33 -6 -14 -11 -29 -11 -33 0 -5 -12 -18 -25 -30 -14 -12
-26 -28 -28 -34 -6 -21 -141 -153 -156 -153 -7 0 -16 -7 -20 -16 -3 -8 -15
-20 -27 -25 -11 -5 -41 -23 -66 -39 -25 -16 -61 -37 -80 -46 -19 -10 -38 -22
-41 -27 -3 -5 -8 -8 -10 -8 -14 2 -49 -13 -49 -21 0 -5 -4 -7 -9 -3 -5 3 -12
1 -16 -5 -3 -5 -17 -10 -31 -10 -13 0 -24 -4 -24 -9 0 -9 -38 -24 -57 -22 -6
1 -14 -3 -18 -9 -3 -5 -17 -10 -31 -10 -13 0 -24 -5 -24 -10 0 -6 -6 -10 -12
-9 -7 1 -20 0 -28 -4 -19 -7 -68 -17 -95 -20 -18 -2 -20 4 -20 68 -1 39 -5 79
-11 90 -5 11 -9 58 -8 105 1 47 -3 90 -7 96 -5 6 -7 42 -6 80 2 38 -1 87 -5
109 -16 79 -14 193 3 185 8 -4 59 24 59 32 0 4 5 8 10 8 6 0 33 16 60 35 27
19 53 35 57 35 5 0 14 9 21 20 7 11 18 20 24 20 16 0 248 231 248 246 0 5 15
24 33 40 19 16 32 35 29 42 -2 6 1 12 6 12 9 0 52 64 51 76 0 3 8 13 19 22 17
16 34 46 36 65 1 4 7 11 14 16 8 5 13 10 12 12 -1 2 4 18 11 34 6 17 11 38 11
47 0 10 3 18 8 18 8 0 24 34 25 55 1 6 9 25 19 44 10 18 16 42 13 52 -3 10 2
20 10 23 9 4 12 13 8 26 -3 11 -2 20 3 20 6 0 12 17 16 38 3 20 8 51 12 67 19
98 25 183 28 378 2 119 -1 217 -5 217 -5 0 -9 22 -9 48 0 27 -3 52 -7 56 -4 3
-8 19 -10 34 -5 52 -16 97 -25 109 -5 7 -7 17 -3 23 3 5 0 13 -8 16 -8 3 -13
13 -10 24 3 10 0 21 -6 24 -6 4 -11 18 -11 32 0 13 -5 24 -10 24 -6 0 -9 3 -8
8 0 4 -2 15 -5 25 -11 27 -15 41 -13 48 0 4 -8 16 -18 28 -11 12 -15 21 -10
21 5 0 5 4 -1 8 -13 9 -34 42 -41 65 -4 9 -11 17 -16 17 -5 0 -7 4 -4 9 3 4
-3 16 -14 26 -11 10 -20 23 -20 29 0 6 -14 24 -30 40 -17 16 -30 36 -30 43 0
8 -4 11 -10 8 -5 -3 -10 -1 -10 5 0 13 -142 152 -148 145 -2 -2 -19 13 -38 33
-19 20 -34 33 -34 29 0 -5 -14 3 -31 17 -17 14 -36 26 -43 26 -7 0 -21 9 -31
20 -10 11 -22 17 -26 14 -5 -3 -12 1 -15 10 -3 8 -12 12 -20 9 -8 -3 -14 0
-14 7 0 6 -6 10 -12 7 -7 -2 -29 3 -48 13 -71 35 -111 50 -135 50 -14 0 -25 5
-25 11 0 6 -6 9 -12 6 -7 -2 -22 0 -33 6 -11 6 -33 11 -50 11 -28 1 -30 3 -31
43 -1 23 -5 48 -11 55 -5 7 -8 49 -7 93 1 44 -2 85 -6 90 -12 17 -11 226 1
241 6 8 9 14 5 14 -4 0 1 11 10 24 8 14 15 26 14 28 -1 2 4 17 11 33 7 17 12
33 11 37 -1 4 7 24 19 44 11 20 18 39 15 42 -3 3 -218 6 -477 6 -387 1 -472
-1 -477 -13 -3 -7 -1 -16 4 -20 14 -9 46 -62 41 -67 -2 -3 9 -19 25 -36 16
-17 26 -33 24 -36 -3 -3 6 -18 19 -34 14 -16 25 -38 25 -49 0 -10 5 -19 10
-19 6 0 10 -22 10 -50 0 -27 4 -50 8 -50 4 0 7 -35 7 -77 -1 -43 3 -83 7 -89
8 -11 11 -72 9 -150 -1 -30 -1 -30 -53 -29 -29 1 -62 -3 -73 -8 -11 -6 -35
-10 -54 -8 -18 1 -38 -2 -45 -7 -6 -5 -32 -9 -58 -8 -26 0 -50 -3 -52 -9 -2
-5 -31 -10 -65 -10 -33 1 -61 -2 -61 -6 0 -3 -35 -6 -78 -6 -43 0 -87 -5 -98
-10 -10 -5 -65 -9 -122 -9 -56 1 -102 -2 -102 -6 0 -5 -37 -8 -82 -9 -71 0
-90 -4 -133 -28 l-50 -28 -3 -63 c-3 -57 0 -66 24 -91 15 -16 34 -29 41 -29 7
0 13 -4 13 -8 0 -4 24 -16 53 -27 28 -10 57 -22 63 -26 6 -5 14 -6 17 -2 4 3
7 1 7 -5 0 -7 6 -12 13 -12 16 0 87 -72 87 -88 0 -7 4 -12 9 -12 5 0 7 -14 6
-30 -1 -17 1 -32 5 -35 4 -3 8 -32 9 -66 0 -34 5 -67 10 -73 4 -6 7 -33 6 -61
-1 -27 2 -56 8 -63 6 -7 10 -42 9 -77 0 -36 4 -67 9 -70 5 -4 9 -37 9 -74 0
-37 3 -71 7 -75 4 -4 9 -42 11 -84 7 -161 13 -248 19 -262 4 -8 7 -46 7 -85 1
-38 5 -76 10 -84 5 -8 9 -52 8 -98 -1 -49 2 -83 8 -83 6 0 9 -39 8 -100 0 -55
3 -105 9 -112 5 -7 9 -62 8 -121 0 -60 3 -111 7 -113 4 -3 8 -72 8 -154 0 -82
3 -151 8 -154 10 -6 8 -231 -2 -276 -8 -32 -66 -100 -86 -100 -4 0 -28 -20
-52 -46 -38 -40 -43 -50 -43 -92 0 -53 26 -89 80 -109 31 -12 139 -15 165 -6
8 3 41 8 73 10 33 2 66 7 75 11 10 5 39 8 65 7 26 -1 50 2 53 7 3 4 43 8 89 8
46 0 86 4 89 8 2 4 65 8 138 7 73 0 136 3 139 8 7 10 111 13 127 3 5 -3 9 -14
7 -24 -1 -9 2 -26 8 -36 5 -11 9 -50 9 -88 0 -37 3 -70 7 -72 4 -3 7 -41 6
-85 -1 -50 3 -82 9 -84 7 -3 10 -32 9 -77 -2 -41 1 -78 7 -85 5 -6 8 -42 7
-80 -1 -39 3 -75 9 -81 6 -7 10 -47 9 -93 -1 -44 2 -81 6 -81 5 0 8 -21 7 -47
0 -27 1 -50 2 -53 2 -7 10 -88 13 -135 2 -22 7 -50 11 -63 l8 -23 236 5 c258
5 304 8 342 21 14 5 33 8 43 6 10 -1 24 2 30 7 7 5 23 9 37 8 14 -1 28 3 32 8
3 5 14 10 25 11 41 5 83 18 83 25 0 5 8 7 18 6 9 -2 24 1 32 5 21 11 53 23 65
24 6 0 26 8 45 17 34 15 63 26 78 29 4 1 19 10 34 20 15 11 30 18 35 17 14 -4
104 43 109 57 3 7 12 11 20 8 8 -3 14 -1 14 5 0 5 12 13 27 17 15 3 35 15 44
26 10 11 21 21 26 21 23 3 43 11 43 19 0 4 16 16 35 25 19 9 35 21 35 26 0 5
4 7 9 4 4 -3 19 6 31 19 13 14 28 25 33 25 9 0 20 10 168 149 91 87 115 105
107 79 -4 -11 65 -83 80 -83 4 0 28 -22 54 -50 26 -27 50 -46 53 -43 4 3 23
-11 42 -33 20 -22 38 -37 41 -34 3 2 13 -5 23 -17 11 -11 19 -17 19 -13 0 5
11 -2 25 -15 14 -13 25 -20 25 -16 0 4 15 -4 33 -18 17 -15 37 -30 42 -34 11
-9 42 -22 51 -21 3 0 13 -9 23 -20 9 -11 29 -23 44 -26 15 -4 27 -11 27 -16 0
-5 9 -9 20 -9 11 0 20 -4 20 -9 0 -8 37 -24 53 -22 4 1 7 -4 7 -9 0 -6 11 -10
24 -10 14 0 28 -5 31 -10 4 -6 11 -8 16 -5 5 4 9 2 9 -3 0 -9 31 -23 56 -26 6
-1 18 -7 26 -14 8 -6 17 -9 20 -6 3 3 21 -3 39 -13 19 -10 44 -18 57 -17 12 1
22 -3 22 -7 0 -5 11 -9 24 -9 14 0 28 -5 31 -11 4 -6 13 -8 20 -5 7 2 23 -1
36 -8 13 -6 34 -11 47 -10 12 1 22 -3 22 -8 0 -5 12 -9 28 -7 15 1 38 -3 52
-8 14 -6 42 -9 62 -8 21 2 40 -1 44 -6 3 -5 105 -9 230 -9 178 0 228 3 239 14
10 9 13 36 12 87 0 41 3 81 8 89 5 8 10 50 10 92 0 42 3 80 8 84 4 4 7 42 7
85 0 43 4 80 8 83 5 3 8 35 7 73 -1 37 3 71 9 75 5 4 9 45 9 92 0 47 3 86 7
86 5 0 8 38 7 85 -1 47 2 86 7 88 4 1 9 45 10 96 1 90 3 94 26 104 14 5 30 11
35 12 6 0 18 4 28 8 9 4 25 10 35 14 9 4 22 7 27 8 17 1 119 56 130 69 6 7 15
14 20 15 27 4 45 13 45 23 0 6 3 9 6 5 3 -3 15 2 26 11 11 9 29 25 40 35 12 9
24 17 28 17 10 0 141 134 138 140 -2 3 11 19 27 35 36 36 75 90 75 105 0 5 5
10 11 10 5 0 8 4 4 9 -3 5 -1 12 4 15 17 11 62 100 57 113 -3 8 1 16 9 19 8 4
13 10 10 14 -3 5 -1 11 5 15 5 3 10 17 10 30 0 13 5 27 10 30 6 3 10 15 10 26
0 10 4 19 8 19 5 0 6 14 4 31 -3 20 -1 30 6 25 6 -4 10 12 9 45 0 28 4 54 9
57 12 9 13 275 0 284 -5 3 -9 20 -8 37 0 17 -4 31 -9 31 -5 0 -9 11 -9 25 0
14 -4 25 -9 25 -5 0 -7 9 -4 20 3 11 1 20 -5 20 -5 0 -13 10 -17 23 -4 12 -8
24 -9 27 -9 26 -43 80 -64 103 -14 15 -23 27 -19 27 3 0 -13 20 -37 45 -25 25
-48 45 -54 45 -5 0 -17 9 -28 21 -14 16 -127 81 -164 95 -3 1 -15 5 -27 9 -13
4 -23 11 -23 16 0 4 -9 6 -19 4 -11 -2 -25 2 -30 9 -6 7 -22 12 -36 11 -14 -2
-27 1 -31 6 -3 5 -18 9 -33 9 l-27 0 1 73 c0 40 5 78 9 86 5 7 8 43 8 79 0 37
3 72 8 77 4 6 7 44 8 85 0 41 4 89 9 105 5 17 8 56 7 88 -1 31 3 57 8 57 5 0
8 23 7 52 -2 35 1 53 10 56 15 5 71 -46 71 -64 0 -7 3 -14 8 -16 15 -7 56 -73
55 -90 -1 -10 2 -18 7 -18 9 0 24 -46 23 -72 0 -10 3 -18 7 -18 5 0 8 -15 8
-34 0 -18 5 -43 11 -55 7 -12 11 -27 10 -34 -4 -21 13 -51 43 -78 40 -36 96
-34 138 6 16 16 28 31 25 33 -2 3 4 17 14 31 10 14 16 31 14 38 -2 6 1 14 6
18 6 3 11 17 11 30 0 13 5 27 11 31 6 3 9 17 6 30 -2 13 1 25 9 28 7 3 10 14
7 25 -3 13 -1 21 7 21 7 0 10 8 7 20 -3 10 1 24 8 30 8 6 12 20 10 31 -2 12 0
28 5 37 14 27 23 55 26 80 2 13 8 29 13 36 6 7 8 15 5 19 -6 5 14 72 27 92 3
6 5 20 4 33 -1 12 2 22 7 22 4 0 8 20 8 45 0 39 -4 47 -25 57 -14 6 -25 15
-25 20 0 4 -5 8 -11 8 -6 0 -25 11 -42 24 -18 14 -35 25 -40 25 -15 1 -172 84
-175 92 -2 5 -8 7 -13 3 -11 -6 -69 17 -69 28 0 4 -9 5 -20 3 -11 -2 -20 0
-20 6 0 5 -11 9 -24 9 -14 0 -28 5 -31 10 -4 6 -14 8 -24 5 -23 -7 -60 20 -45
34 6 7 9 40 7 77 -2 37 1 72 7 79 5 7 10 46 9 87 -1 42 3 84 8 94 5 11 9 26 8
34 0 8 9 29 21 45 12 17 25 40 29 53 3 12 13 22 20 22 9 0 12 6 9 15 -4 8 -1
15 5 15 6 0 11 9 11 19 0 10 7 21 15 25 8 3 15 12 15 19 0 8 9 22 20 32 14 12
17 22 11 28 -13 13 -918 16 -944 4 -15 -7 -16 -11 -5 -24 7 -9 13 -21 13 -27
1 -6 7 -24 15 -41 7 -16 14 -34 15 -40 6 -30 18 -55 27 -55 5 0 8 -6 5 -12 -2
-7 0 -22 6 -33 13 -25 15 -148 3 -157 -5 -3 -10 -50 -11 -105 -3 -110 -11
-147 -31 -139 -8 3 -14 1 -14 -4 0 -6 -11 -10 -24 -10 -13 0 -45 -9 -71 -20
-26 -11 -51 -18 -56 -14 -5 3 -9 0 -9 -5 0 -6 -11 -11 -25 -11 -14 0 -25 -5
-25 -10 0 -6 -3 -9 -7 -8 -12 4 -105 -44 -130 -66 -13 -11 -23 -16 -23 -11 0
4 -9 -2 -19 -14 -11 -12 -23 -22 -28 -22 -11 1 -211 -198 -205 -204 3 -3 -5
-14 -17 -24 -13 -11 -20 -25 -16 -30 3 -6 3 -11 -2 -11 -4 0 -21 -29 -38 -65
-16 -36 -34 -65 -38 -65 -5 0 -5 -9 -2 -20 4 -11 2 -20 -4 -20 -6 0 -11 -11
-11 -24 0 -14 -5 -28 -10 -31 -6 -4 -8 -15 -5 -25 3 -10 0 -24 -8 -31 -7 -7
-11 -25 -9 -41 2 -15 0 -28 -6 -28 -20 0 -37 -315 -17 -333 6 -5 9 -27 7 -48
-3 -26 0 -39 8 -39 8 0 11 -11 8 -30 -2 -16 -1 -31 4 -32 5 -2 11 -10 13 -18
8 -37 18 -60 25 -60 5 0 11 -13 15 -30 4 -16 11 -30 17 -30 6 0 8 -6 5 -14 -3
-8 1 -17 9 -20 8 -3 13 -9 12 -14 -7 -19 104 -140 167 -182 20 -14 46 -33 56
-42 10 -10 21 -18 24 -18 12 0 85 -35 85 -42 0 -3 14 -10 32 -13 18 -4 39 -11
48 -16 25 -13 54 -22 72 -23 9 -1 20 -4 24 -9 4 -4 19 -7 34 -7 l27 0 -4 -107
c-9 -259 -13 -307 -20 -312 -5 -3 -8 -46 -8 -96 1 -49 -3 -99 -8 -110 -6 -10
-9 -61 -9 -112 1 -62 -2 -93 -9 -93 -6 0 -9 -7 -5 -15 6 -17 -29 -22 -39 -5
-4 6 -11 8 -16 5 -5 -4 -9 -2 -9 3 0 4 -16 14 -35 22 -19 7 -36 19 -39 27 -3
7 -11 13 -18 13 -15 0 -148 130 -148 145 0 6 -12 21 -25 34 -14 13 -25 29 -25
37 0 7 -11 24 -24 37 -14 14 -22 28 -18 31 3 4 2 10 -4 14 -11 8 -59 103 -56
113 1 4 -8 15 -18 24 -11 10 -20 24 -20 32 0 7 -4 13 -9 13 -5 0 -12 13 -16
30 -4 17 -11 30 -17 30 -6 0 -8 6 -5 13 3 7 -4 19 -14 25 -10 7 -19 19 -19 27
0 8 -5 15 -11 15 -6 0 -9 7 -5 15 3 10 -1 15 -13 15 -16 0 -19 -8 -19 -51 -1
-28 -5 -56 -10 -62 -5 -7 -8 -30 -7 -52 1 -22 -1 -44 -5 -50 -5 -5 -10 -35
-13 -65 -12 -129 -16 -160 -24 -177 -5 -10 -8 -31 -7 -48 1 -16 -3 -35 -8 -42
-5 -7 -8 -22 -7 -35 2 -13 -1 -29 -6 -37 -4 -8 -10 -31 -11 -50 -4 -48 -15
-104 -23 -116 -4 -5 -7 -19 -7 -30 1 -11 -3 -23 -7 -26 -5 -3 -9 -20 -9 -37
-1 -18 -4 -32 -8 -32 -7 0 -12 -18 -26 -88 -2 -12 31 -31 48 -28 4 0 15 -9 23
-22 9 -12 20 -20 25 -17 4 3 13 -2 20 -10 7 -8 16 -12 21 -9 5 3 9 0 9 -5 0
-6 7 -11 15 -11 8 0 15 -5 15 -11 0 -5 4 -8 9 -4 5 3 32 -8 59 -24 28 -16 52
-27 55 -25 3 3 13 1 24 -4 49 -25 96 -42 118 -42 14 0 25 -4 25 -9 0 -6 9 -8
20 -6 11 2 20 0 20 -4 0 -5 15 -11 33 -14 92 -15 112 -20 117 -26 3 -4 29 -6
58 -6 l52 2 0 -34 c0 -18 -4 -33 -8 -33 -4 0 -7 -43 -7 -96 1 -52 -3 -97 -7
-100 -4 -3 -8 -57 -8 -119 l0 -115 -27 3 c-28 4 -56 12 -83 26 -8 4 -23 7 -32
5 -10 -1 -18 1 -18 6 0 6 -34 18 -75 25 -30 5 -156 65 -166 78 -3 5 -10 9 -15
8 -18 0 -116 53 -121 66 -3 7 -9 10 -15 7 -5 -3 -17 4 -27 15 -10 12 -23 21
-28 21 -5 0 -20 11 -33 25 -13 14 -25 23 -28 20 -5 -5 -162 149 -162 160 0 5
-39 64 -50 75 -14 14 -49 93 -45 100 3 5 1 11 -5 15 -5 3 -10 19 -10 36 0 16
-3 29 -8 29 -4 0 -7 369 -7 820 0 451 3 820 7 820 4 0 8 10 8 23 -1 80 -1 120
1 150 1 18 0 148 -1 177 -1 14 -1 31 -1 38 1 6 1 19 1 27 0 8 0 23 0 33 0 9 0
33 -1 52 -1 19 -1 41 0 48 1 6 1 18 2 25 1 18 0 148 -1 177 -1 14 -1 31 -1 38
1 6 1 18 2 25 1 18 0 148 -1 177 -1 14 -1 31 -1 38 1 6 1 18 2 25 1 18 0 148
-1 177 -1 14 -1 31 -1 38 1 6 1 18 2 25 1 18 0 148 -1 177 -1 14 -1 31 -1 38
1 6 1 18 2 25 1 11 0 126 -1 176 0 13 4 29 8 35 5 6 8 128 7 271 l-2 260 27
55 c15 30 25 61 23 68 -3 6 0 12 5 12 10 0 23 32 25 60 1 8 4 17 7 20 11 11
30 51 30 65 0 12 -14 15 -62 16 -393 3 -703 3 -790 1z m573 -199 c0 -5 2 -16
4 -25 2 -10 -1 -18 -6 -18 -9 0 -10 -23 -9 -162 1 -20 -3 -39 -7 -41 -5 -3 -8
-395 -8 -872 0 -574 -3 -869 -10 -871 -7 -3 -9 -295 -9 -867 1 -474 -1 -866
-6 -872 -10 -14 -10 -207 0 -220 5 -6 8 -32 8 -58 0 -26 4 -53 9 -60 5 -7 9
-19 8 -27 -1 -8 6 -31 16 -50 9 -19 18 -39 19 -45 2 -16 33 -79 41 -85 3 -3
16 -23 27 -45 12 -22 33 -51 47 -64 14 -13 25 -27 25 -32 0 -12 122 -130 128
-124 2 2 18 -11 35 -30 17 -19 36 -35 42 -35 7 0 20 -9 30 -20 10 -11 20 -18
23 -15 3 2 13 -5 23 -17 11 -11 19 -17 19 -13 0 5 11 -2 25 -15 14 -13 25 -20
25 -16 0 4 12 -1 28 -12 30 -21 63 -36 75 -34 4 1 7 -2 7 -7 0 -9 38 -24 53
-22 4 1 10 -5 13 -13 3 -8 13 -12 25 -9 11 3 19 0 19 -6 0 -7 4 -10 9 -7 5 3
14 -1 21 -8 6 -8 20 -13 31 -11 10 2 19 0 19 -4 0 -10 37 -24 63 -24 9 0 17
-4 17 -8 0 -5 13 -9 29 -9 17 0 32 -4 35 -9 8 -12 73 -26 174 -37 28 -3 52 -9
52 -12 0 -4 18 -7 40 -7 l40 -1 0 88 c0 48 4 89 8 92 5 3 8 47 7 98 -1 51 3
99 8 106 5 6 9 55 8 107 -1 56 2 95 8 95 5 0 9 41 8 100 -1 55 3 106 8 113 6
8 10 57 9 110 -1 54 3 97 7 97 5 0 9 47 9 104 0 58 4 107 8 110 4 2 8 48 7
100 0 53 3 96 7 96 4 0 8 47 8 105 0 58 4 105 9 105 5 0 8 39 7 88 -2 48 2
101 8 117 6 17 11 68 10 115 0 47 2 90 7 95 4 6 7 55 7 109 1 55 5 102 10 105
4 3 8 50 7 104 0 53 3 97 7 97 4 0 8 47 8 105 0 58 4 105 8 105 5 0 9 45 9
100 1 56 5 106 10 113 5 7 8 55 7 107 -1 52 2 100 6 105 5 6 8 54 8 109 0 54
4 101 9 105 5 3 9 50 8 104 0 53 3 97 7 97 5 0 8 7 8 15 0 18 -7 17 113 19 53
1 97 -2 97 -6 0 -5 18 -8 40 -8 22 0 40 -4 40 -10 0 -5 7 -10 15 -10 16 0 21
-35 6 -44 -5 -4 -9 -41 -8 -84 0 -42 -4 -86 -10 -97 -6 -11 -9 -50 -8 -87 2
-38 -1 -68 -5 -68 -5 0 -9 -35 -9 -78 0 -43 -4 -89 -9 -102 -4 -14 -8 -58 -7
-97 0 -40 -3 -73 -7 -73 -5 0 -8 -36 -8 -79 0 -44 -4 -82 -9 -85 -5 -3 -8 -38
-7 -78 1 -40 -2 -82 -8 -93 -5 -10 -9 -49 -10 -85 -1 -36 -4 -69 -8 -75 -3 -5
-6 -45 -6 -88 0 -43 -4 -83 -9 -90 -5 -6 -9 -43 -8 -80 1 -38 -2 -70 -7 -73
-4 -3 -8 -43 -8 -89 0 -46 -4 -86 -9 -89 -5 -3 -8 -38 -7 -78 1 -40 -4 -86 -9
-103 -6 -16 -10 -55 -9 -85 1 -30 -2 -59 -6 -65 -4 -5 -7 -44 -7 -85 0 -41 -4
-84 -10 -95 -5 -11 -9 -50 -8 -88 1 -37 -2 -67 -7 -67 -4 0 -8 -40 -8 -90 0
-49 -4 -90 -8 -90 -5 0 -8 -37 -8 -83 1 -45 -3 -85 -7 -88 -5 -4 -9 -40 -9
-80 0 -41 -4 -78 -8 -84 -4 -5 -7 -37 -6 -70 1 -33 -2 -73 -7 -90 -9 -30 -14
-83 -23 -262 -3 -51 -9 -93 -14 -93 -5 0 -7 -38 -6 -85 2 -51 -2 -86 -8 -88
-6 -2 -10 -36 -9 -82 1 -44 -3 -85 -8 -92 -6 -7 -8 -17 -5 -22 4 -5 1 -13 -6
-17 -17 -11 -242 -12 -249 -1 -3 5 -33 10 -65 12 -84 6 -131 13 -151 23 -10 5
-26 8 -35 7 -10 -2 -20 1 -24 6 -3 5 -18 9 -35 9 -16 0 -29 4 -29 9 0 6 -9 8
-20 6 -11 -2 -20 0 -20 6 0 5 -8 9 -19 9 -10 0 -36 8 -57 17 -22 9 -43 17 -49
18 -28 5 -55 18 -55 27 0 5 -4 7 -9 3 -5 -3 -12 -1 -16 5 -3 5 -15 10 -27 10
-11 0 -34 10 -51 22 -18 13 -34 23 -37 22 -12 -2 -40 9 -40 16 0 4 -12 11 -27
15 -15 3 -35 15 -44 26 -10 11 -20 20 -23 20 -12 -1 -42 13 -54 26 -7 7 -19
13 -27 13 -7 0 -15 7 -19 15 -3 8 -12 15 -19 15 -8 0 -22 9 -32 20 -10 11 -21
18 -25 15 -3 -2 -12 5 -20 15 -8 10 -17 17 -21 15 -4 -3 -23 13 -42 34 -20 22
-38 37 -41 34 -7 -7 -206 191 -206 205 0 5 -9 17 -21 28 -12 10 -28 32 -36 47
l-14 28 -20 -24 c-10 -14 -19 -28 -19 -32 0 -18 -259 -275 -312 -310 -60 -40
-134 -91 -138 -96 -6 -6 -37 -19 -46 -18 -3 0 -13 -8 -22 -18 -9 -10 -37 -28
-62 -41 -25 -12 -60 -31 -77 -42 -18 -11 -33 -17 -33 -14 0 3 -7 -1 -15 -10
-9 -8 -22 -13 -30 -10 -8 4 -15 2 -15 -4 0 -8 -24 -20 -52 -26 -3 0 -10 -4
-14 -8 -4 -5 -16 -8 -26 -8 -10 0 -18 -5 -18 -11 0 -5 -4 -8 -9 -4 -5 3 -16
-1 -24 -9 -8 -8 -17 -12 -21 -9 -3 4 -16 2 -29 -4 -35 -17 -60 -26 -82 -28
-21 -2 -49 -11 -75 -24 -8 -5 -26 -7 -40 -6 -14 1 -31 -2 -38 -8 -7 -5 -27
-10 -45 -11 -17 -1 -37 -4 -43 -8 -6 -4 -30 -6 -53 -5 -23 2 -46 -2 -51 -8 -7
-8 -229 -13 -271 -6 -3 1 -4 40 -4 89 1 48 -2 92 -7 99 -6 7 -8 46 -6 87 2 45
-1 74 -7 73 -6 -1 -10 29 -10 73 -1 41 -5 86 -9 100 -5 13 -8 57 -8 97 0 40
-3 75 -8 78 -5 3 -9 39 -9 80 0 41 -3 80 -7 87 -5 7 -9 46 -11 88 -1 41 -5 91
-8 110 -3 19 -5 56 -5 82 0 26 -4 49 -8 52 -4 3 -7 40 -7 83 1 43 -3 84 -9 92
-6 7 -10 47 -8 89 1 42 -2 80 -7 86 -5 6 -8 44 -7 84 0 39 -3 73 -9 75 -5 2
-10 39 -10 83 0 43 -3 84 -7 89 -3 6 -5 27 -4 48 0 20 -1 37 -4 37 -3 0 -4 18
-2 40 2 22 0 40 -5 40 -5 0 -8 33 -8 73 1 39 -3 78 -8 85 -5 7 -9 48 -8 91 1
44 -2 82 -7 85 -5 3 -9 42 -10 86 -1 45 -5 86 -9 93 -4 6 -7 41 -8 77 0 36 -3
70 -6 75 -4 6 -7 45 -8 89 -1 43 -5 86 -10 95 -4 9 -7 43 -6 76 1 33 -3 65 -8
72 -5 7 -8 50 -8 97 0 48 -3 86 -8 86 -5 0 -8 36 -8 81 1 45 -3 84 -8 89 -6 5
-10 42 -9 82 1 40 -2 78 -6 83 -5 6 -8 42 -8 81 0 39 -4 80 -10 91 -6 11 -8
23 -5 27 10 9 223 7 223 -3 0 -4 10 -8 23 -8 12 0 30 -3 40 -6 9 -4 23 -9 30
-11 12 -4 21 -55 18 -103 0 -7 -1 -25 -2 -39 -1 -15 3 -29 8 -33 5 -3 8 -50 8
-103 0 -54 3 -98 7 -98 5 0 8 -47 8 -104 0 -58 4 -107 9 -110 5 -4 9 -49 8
-102 -1 -55 2 -99 8 -104 6 -5 10 -49 9 -102 -1 -51 2 -97 6 -103 5 -5 8 -52
8 -102 0 -51 4 -99 9 -105 5 -7 9 -55 8 -106 0 -51 3 -96 7 -98 4 -3 8 -52 8
-110 0 -57 4 -104 8 -104 5 0 9 -46 9 -102 0 -56 4 -103 9 -105 5 -2 8 -47 8
-100 -1 -54 2 -102 6 -108 4 -5 7 -51 7 -101 0 -50 5 -99 10 -110 5 -10 9 -59
8 -107 -1 -49 2 -90 7 -93 4 -3 8 -54 8 -113 0 -59 3 -111 8 -115 4 -4 7 -47
8 -94 0 -48 4 -98 9 -112 7 -23 12 -102 19 -305 1 -49 7 -99 13 -110 5 -11 9
-39 8 -62 -2 -24 0 -44 4 -44 26 -6 71 -4 71 3 0 4 23 8 50 8 28 0 50 4 50 9
0 5 11 8 25 6 14 -1 28 2 31 6 3 5 18 9 33 9 15 0 32 5 39 12 7 7 12 9 12 5 0
-4 13 -1 30 8 16 8 32 15 35 15 9 -1 60 13 70 19 6 3 16 6 23 7 7 1 30 11 51
23 22 11 47 21 58 23 10 2 20 5 23 8 4 4 40 24 121 65 10 5 19 13 19 17 0 5 9
8 20 8 11 0 20 5 20 10 0 6 10 15 23 20 33 15 61 33 70 48 4 6 13 12 20 12 16
0 247 231 247 247 0 7 4 13 9 13 12 0 62 96 54 104 -4 3 -2 6 3 6 6 0 16 16
24 35 8 19 17 35 21 35 4 0 6 9 4 20 -2 11 0 20 4 20 5 0 12 17 15 38 10 53
13 1062 4 1062 -5 0 -8 252 -8 559 0 308 -4 562 -8 565 -5 3 -8 244 -8 537 1
342 -3 536 -9 543 -6 7 -9 143 -8 371 1 346 -4 415 -29 415 -4 0 -5 7 -2 15 5
13 39 15 215 15 115 0 209 -3 210 -7z m-1941 -545 c0 -4 -5 -10 -10 -13 -6 -4
-8 -10 -5 -15 3 -4 -1 -10 -9 -13 -13 -5 -12 -41 1 -77 4 -8 7 -55 7 -105 1
-49 5 -96 10 -103 4 -7 8 -55 8 -105 0 -50 4 -97 10 -104 5 -6 8 -22 6 -35 -3
-19 -10 -23 -48 -25 -25 -1 -52 1 -60 4 -8 4 -58 8 -110 9 -52 1 -100 2 -107
3 -6 1 -10 15 -8 34 1 17 -3 41 -9 52 -6 11 -11 54 -10 95 0 41 -2 80 -5 85
-3 6 -6 45 -7 87 0 42 -5 83 -11 90 -5 7 -9 33 -8 58 1 32 -4 50 -17 61 -10 9
-15 18 -13 21 8 8 395 4 395 -4z m3890 1 c0 -4 -5 -9 -11 -11 -17 -6 -32 -78
-33 -163 0 -44 -5 -83 -10 -87 -5 -3 -10 -39 -11 -80 -1 -40 -7 -85 -13 -100
-6 -15 -7 -30 -3 -33 5 -3 7 -14 4 -26 -5 -18 -11 -20 -47 -15 -23 3 -94 8
-159 10 -110 3 -164 16 -126 31 11 4 14 27 13 103 -1 53 2 102 6 107 11 14 9
255 -2 255 -5 0 -7 4 -4 8 6 10 396 11 396 1z m-185 -617 c94 -3 155 -13 155
-24 0 -6 13 -8 30 -6 16 2 31 0 33 -5 2 -6 15 -11 29 -11 15 -1 30 -5 34 -9 4
-4 18 -7 31 -7 12 0 23 -5 23 -11 0 -6 6 -9 14 -6 8 3 20 0 26 -8 6 -7 20 -11
30 -8 11 3 20 0 20 -6 0 -6 3 -10 8 -9 4 1 16 -3 27 -9 11 -6 22 -11 25 -11 3
0 19 -6 35 -13 17 -7 33 -12 38 -11 4 1 7 -1 7 -6 0 -4 14 -13 32 -21 17 -8
40 -21 50 -30 18 -16 25 -41 10 -41 -4 0 -9 -15 -10 -32 -2 -18 -6 -34 -10
-36 -5 -1 -7 -16 -6 -32 1 -17 -2 -30 -7 -30 -5 0 -9 -11 -9 -25 0 -14 -4 -25
-9 -25 -5 0 -8 -12 -6 -26 1 -15 -3 -28 -11 -31 -8 -3 -11 -9 -8 -15 3 -5 2
-17 -2 -26 -7 -18 -10 -28 -13 -52 -1 -13 -3 -13 -10 -1 -5 8 -7 20 -4 28 3 7
0 13 -7 13 -7 0 -10 6 -7 14 3 8 -1 17 -9 20 -8 3 -13 9 -12 13 3 12 -24 63
-34 63 -4 0 -8 6 -8 13 0 12 -108 120 -151 152 -19 14 -152 79 -164 80 -9 1
-21 5 -72 25 -12 5 -32 7 -44 5 -13 -3 -26 0 -30 6 -7 12 -169 16 -188 5 -6
-4 -11 -4 -11 1 0 12 -97 8 -113 -5 -8 -7 -21 -10 -30 -6 -8 3 -18 1 -22 -5
-3 -6 -14 -11 -24 -11 -21 0 -134 -58 -139 -71 -2 -5 -9 -9 -16 -9 -15 0 -111
-99 -119 -122 -4 -10 -10 -18 -15 -18 -5 0 -17 -17 -28 -37 -10 -21 -26 -49
-35 -63 -9 -14 -17 -29 -18 -35 -3 -30 -13 -82 -18 -95 -15 -39 -27 -198 -15
-213 5 -7 8 -27 6 -45 -1 -18 1 -30 6 -27 6 4 14 -14 23 -55 5 -22 36 -64 91
-121 37 -37 66 -65 66 -63 0 2 22 -7 50 -21 27 -14 56 -25 65 -25 8 0 15 -6
16 -12 6 -64 3 -127 -6 -148 -6 -14 -10 -58 -9 -98 1 -39 -2 -75 -7 -78 -5 -3
-9 0 -9 5 0 6 -8 11 -18 11 -10 0 -22 3 -26 8 -4 4 -15 7 -24 8 -27 1 -75 16
-107 32 -16 9 -33 15 -37 14 -5 -1 -8 2 -8 7 0 9 -38 24 -53 22 -4 -1 -10 5
-13 13 -3 8 -12 12 -20 9 -8 -3 -14 0 -14 6 0 6 -6 11 -13 11 -7 0 -44 32 -82
70 -38 39 -65 70 -60 70 6 0 6 3 0 8 -12 7 -52 64 -53 72 -1 6 -10 35 -19 58
-4 9 -7 25 -8 34 -1 10 -7 23 -12 30 -6 7 -8 25 -6 41 2 15 -1 27 -7 27 -11 0
-11 188 0 205 4 6 6 27 6 48 -1 21 4 42 10 48 6 5 10 20 9 34 -2 14 1 27 6 31
5 3 9 16 9 30 0 13 5 24 11 24 6 0 9 6 6 14 -3 7 3 28 14 45 11 18 17 36 14
40 -2 5 2 14 10 21 8 7 13 16 10 20 -3 5 4 15 15 23 11 7 17 17 13 20 -3 4 4
15 15 26 12 10 22 22 22 27 0 13 133 144 147 144 6 0 16 6 20 13 4 7 25 21 46
31 20 9 37 21 37 26 0 6 11 10 25 10 14 0 25 4 25 10 0 5 7 7 15 4 8 -4 15 -2
15 4 0 8 25 21 55 27 6 1 17 5 25 8 19 8 65 18 113 24 20 3 37 8 37 12 0 4 29
7 65 6 36 -1 68 2 71 7 3 4 28 8 55 7 27 -1 52 1 56 5 4 4 12 1 18 -6 6 -8 35
-14 70 -16z m-3725 -84 c3 -4 31 -8 63 -9 31 -1 57 -5 57 -10 0 -4 15 -7 34
-7 18 0 43 -5 55 -11 12 -7 25 -10 30 -7 5 3 24 -2 42 -11 19 -10 41 -18 49
-19 14 -1 28 -5 70 -22 8 -3 20 -6 25 -7 20 -2 123 -56 135 -70 7 -8 19 -15
26 -15 8 0 14 -5 14 -11 0 -5 4 -8 9 -5 4 3 19 -6 31 -19 13 -14 28 -25 33
-25 5 0 52 -43 105 -95 52 -52 91 -95 87 -95 -5 0 6 -15 23 -33 18 -18 29 -36
26 -40 -4 -4 -2 -7 4 -7 7 0 12 -6 12 -13 0 -8 9 -22 20 -32 11 -10 17 -21 15
-26 -3 -4 -1 -10 5 -14 6 -4 8 -11 5 -16 -4 -5 -2 -9 3 -9 5 0 14 -12 20 -27
6 -16 14 -37 18 -48 4 -11 6 -23 6 -27 -1 -5 3 -8 8 -8 6 0 10 -11 10 -24 0
-14 5 -28 11 -31 6 -4 8 -13 5 -20 -2 -7 1 -18 7 -24 11 -11 13 -19 23 -103 3
-27 9 -48 13 -48 5 0 7 -19 6 -42 -1 -24 2 -51 7 -60 11 -23 11 -347 0 -361
-5 -7 -8 -36 -7 -64 1 -29 -2 -53 -7 -53 -4 0 -8 -18 -8 -39 0 -22 -5 -43 -11
-46 -5 -4 -8 -12 -6 -18 2 -7 0 -23 -5 -37 -6 -14 -11 -32 -13 -40 -2 -8 -9
-28 -16 -45 -7 -16 -13 -34 -14 -40 0 -5 -7 -23 -14 -40 -7 -16 -14 -34 -16
-40 -13 -43 -18 -55 -26 -55 -5 0 -9 -9 -9 -20 0 -11 -5 -20 -10 -20 -6 0 -10
-3 -9 -7 3 -18 -14 -52 -27 -57 -8 -3 -14 -12 -14 -19 0 -8 -9 -22 -20 -32
-11 -10 -17 -21 -15 -25 3 -5 -9 -20 -25 -34 -17 -14 -29 -28 -28 -31 2 -4 -9
-21 -25 -38 -109 -126 -136 -155 -140 -150 -3 3 -27 -16 -52 -41 -26 -25 -51
-43 -56 -40 -5 3 -9 1 -9 -4 0 -9 -71 -57 -78 -52 -2 1 -11 -7 -20 -17 -20
-21 -62 -46 -68 -40 -3 2 -5 25 -7 51 -1 25 -5 46 -9 46 -5 0 -8 21 -8 48 0
43 3 49 37 72 45 31 123 106 123 119 0 6 11 22 24 37 46 51 54 62 61 83 3 12
10 21 14 21 4 0 13 16 21 35 8 19 18 35 22 35 5 0 6 5 2 11 -3 6 -3 14 2 18
13 9 44 70 44 87 0 8 5 14 10 14 6 0 10 6 9 13 -2 13 6 41 22 69 5 10 9 29 9
42 0 14 4 27 9 30 4 3 7 17 6 30 -2 14 3 30 10 36 7 6 11 20 8 30 -3 11 -2 28
2 37 5 10 9 41 9 68 1 28 6 56 11 64 12 21 13 252 0 276 -6 11 -10 43 -9 70 1
28 -2 55 -6 60 -4 6 -8 25 -8 44 0 19 -5 37 -10 40 -5 3 -9 20 -7 36 1 29 -1
38 -25 85 -6 12 -8 25 -5 29 2 5 -2 14 -10 21 -8 7 -12 16 -9 21 3 5 0 9 -7 9
-7 0 -9 8 -6 21 3 12 0 22 -9 26 -8 3 -11 10 -8 15 4 6 3 13 -2 17 -5 3 -23
33 -39 66 -37 74 -65 116 -88 133 -10 8 -17 18 -15 24 4 10 -162 178 -176 178
-4 0 -12 4 -19 10 -43 35 -73 58 -77 59 -3 1 -15 4 -27 7 -13 4 -23 10 -23 15
0 5 -7 9 -15 9 -8 0 -15 5 -15 11 0 5 -4 8 -10 4 -5 -3 -17 -1 -27 4 -28 15
-57 24 -70 22 -6 -1 -14 3 -18 9 -3 5 -19 10 -35 10 -16 0 -31 4 -34 9 -3 5
-27 8 -53 6 -27 -1 -56 2 -67 7 -25 13 -186 14 -211 1 -11 -5 -55 -9 -97 -8
-43 1 -78 -2 -78 -7 0 -4 -20 -8 -44 -8 -25 0 -48 -4 -51 -10 -3 -5 -16 -8
-28 -6 -12 2 -27 0 -33 -5 -6 -5 -23 -10 -38 -11 -15 -1 -26 -9 -27 -18 -5
-71 -2 -123 6 -126 6 -3 10 -54 9 -129 0 -69 3 -125 6 -125 4 0 7 -51 8 -112
0 -62 4 -124 9 -138 5 -14 8 -56 8 -93 -1 -37 2 -70 6 -73 5 -3 9 -43 9 -89 0
-46 4 -86 8 -89 5 -3 8 -40 7 -83 0 -43 4 -87 10 -99 6 -11 9 -55 8 -97 -1
-44 3 -75 8 -72 5 4 8 -30 7 -79 -1 -47 3 -91 9 -98 6 -7 9 -42 8 -78 -2 -36
1 -69 5 -75 8 -10 16 -100 22 -235 1 -36 7 -68 12 -72 5 -3 9 -35 9 -70 0 -34
4 -68 8 -74 5 -6 7 -32 5 -57 -1 -25 2 -60 8 -79 6 -18 10 -51 9 -73 -1 -22 2
-49 7 -60 4 -11 10 -27 13 -35 4 -12 25 -15 113 -15 60 1 115 4 122 9 8 5 35
9 60 10 26 1 52 5 58 8 8 6 11 -14 10 -68 -1 -41 1 -77 6 -80 17 -11 7 -24
-14 -20 -13 2 -28 0 -34 -5 -6 -5 -43 -10 -82 -11 -40 -2 -72 -6 -72 -9 0 -4
-68 -6 -150 -5 -98 1 -150 -3 -150 -9 0 -7 -28 -10 -70 -10 -38 1 -70 -2 -70
-7 0 -4 -28 -8 -63 -8 -35 0 -67 -3 -71 -7 -10 -11 -65 -13 -71 -3 -3 5 4 14
15 20 11 6 19 14 19 18 -2 14 13 52 21 52 5 0 7 11 6 25 -2 13 1 22 5 19 10
-6 10 4 10 228 1 81 -3 153 -7 160 -5 7 -10 72 -12 143 -7 267 -13 385 -21
385 -5 0 -7 35 -6 78 1 42 -3 82 -8 89 -5 7 -9 48 -9 93 0 44 -4 82 -8 85 -5
3 -9 44 -9 92 0 48 -4 89 -8 92 -5 3 -8 40 -8 81 1 41 -2 80 -6 85 -4 6 -10
51 -13 100 -3 50 -7 117 -8 150 -2 33 -8 66 -12 74 -5 7 -8 42 -7 77 1 38 -3
64 -9 64 -6 0 -9 24 -8 61 1 33 -2 63 -8 67 -5 4 -9 31 -8 60 1 28 -2 52 -6
52 -4 0 -10 26 -14 58 -3 31 -7 63 -8 70 -1 6 -5 12 -10 12 -4 0 -8 6 -8 13 0
7 -9 23 -20 35 -12 12 -18 22 -15 22 3 0 -6 12 -20 27 -14 15 -25 31 -25 35 0
4 -6 5 -13 2 -8 -3 -20 2 -27 11 -7 8 -19 15 -26 15 -8 0 -14 5 -14 10 0 6 41
10 104 10 58 0 107 4 110 8 2 4 40 8 83 7 43 -1 81 3 85 8 3 6 32 10 65 10 32
0 63 3 68 7 6 4 24 6 40 5 17 0 36 3 43 9 8 5 36 9 63 9 27 -1 51 3 54 8 4 5
33 9 65 9 32 0 61 3 64 8 6 9 449 10 456 0z m-425 -419 c-1 -46 3 -87 8 -90 5
-4 9 -37 9 -75 0 -38 3 -73 6 -79 4 -5 7 -41 8 -80 1 -38 6 -88 11 -110 5 -22
8 -61 7 -87 -2 -26 2 -50 7 -53 5 -4 9 -46 9 -96 0 -49 4 -89 8 -89 4 0 7 -37
7 -82 -1 -46 3 -86 8 -89 4 -3 8 -41 8 -83 0 -42 3 -76 8 -76 5 0 8 -32 6 -71
-1 -40 3 -76 9 -82 6 -7 10 -46 9 -92 0 -44 3 -85 8 -91 5 -6 8 -45 8 -87 0
-42 3 -82 7 -89 5 -7 8 -47 9 -88 0 -41 4 -81 9 -89 5 -7 8 -42 7 -78 -1 -35
2 -70 6 -76 4 -6 8 -31 8 -54 l2 -43 -53 0 c-29 0 -56 -5 -59 -11 -12 -18 -32
34 -30 76 1 22 -3 56 -9 75 -6 19 -11 58 -10 85 1 28 -2 55 -6 60 -5 6 -8 45
-7 87 0 42 -4 83 -9 90 -6 7 -10 46 -9 86 1 39 -2 72 -7 72 -4 0 -8 36 -8 80
0 44 -4 80 -9 80 -4 0 -7 33 -6 73 1 39 -2 77 -7 84 -5 6 -10 47 -10 90 0 43
-3 83 -7 88 -3 6 -7 45 -7 88 -1 42 -6 83 -11 90 -6 6 -9 47 -8 90 1 43 -2 80
-6 83 -5 3 -9 43 -9 89 0 46 -4 86 -8 89 -5 3 -8 58 -8 123 1 65 -3 127 -9
138 -8 17 -11 109 -6 185 1 11 12 15 46 14 25 -1 48 3 51 8 3 5 11 7 17 5 8
-2 12 -33 12 -88z m3715 81 c0 -5 -4 -10 -10 -10 -5 0 -8 -39 -6 -92 1 -51 -2
-99 -8 -106 -5 -7 -9 -58 -9 -113 0 -54 -4 -99 -9 -99 -4 0 -8 -36 -8 -80 0
-44 -2 -80 -4 -80 -11 0 -75 73 -71 80 3 4 -2 11 -11 14 -8 3 -13 10 -9 15 3
5 1 12 -5 16 -5 3 -10 24 -10 46 0 21 -4 39 -10 39 -11 0 -8 35 3 46 4 4 7 31
7 61 0 31 4 53 11 53 6 0 9 6 6 13 -6 18 53 126 93 168 36 38 50 46 50 29z
m-2951 -219 c38 -38 66 -72 63 -76 -3 -3 4 -12 16 -21 12 -8 29 -31 39 -52 9
-20 21 -40 26 -43 5 -3 9 -10 9 -15 2 -22 11 -44 18 -44 4 0 13 -20 19 -44 6
-25 17 -50 24 -58 8 -7 12 -25 10 -40 -2 -15 1 -29 7 -33 5 -3 10 -19 10 -36
0 -16 5 -29 10 -29 6 0 8 -12 6 -26 -3 -15 0 -36 6 -48 6 -11 10 -42 9 -69 -1
-26 2 -53 6 -60 11 -17 12 -180 1 -194 -5 -6 -8 -38 -7 -70 1 -32 -2 -67 -8
-78 -6 -11 -9 -30 -7 -42 2 -12 -1 -25 -6 -28 -6 -3 -10 -19 -10 -35 0 -16 -5
-32 -11 -35 -6 -4 -8 -13 -5 -20 3 -8 -1 -19 -9 -25 -7 -6 -11 -20 -8 -30 3
-11 0 -20 -6 -20 -6 0 -11 -11 -11 -25 0 -14 -4 -25 -10 -25 -5 0 -9 -3 -8 -7
1 -5 -5 -21 -12 -38 -7 -16 -13 -33 -12 -37 1 -5 -3 -8 -8 -8 -6 0 -10 -9 -10
-21 0 -11 -4 -17 -10 -14 -5 3 -10 -3 -10 -13 0 -11 -7 -22 -15 -26 -8 -3 -15
-12 -15 -19 0 -8 -7 -20 -15 -27 -12 -10 -15 -10 -15 4 0 9 -4 16 -9 16 -5 0
-9 45 -8 101 1 57 -2 104 -8 109 -6 5 -9 50 -9 102 1 51 -2 98 -7 103 -7 10
-14 112 -21 310 -2 50 -7 96 -12 104 -5 7 -9 58 -8 112 0 55 -3 99 -8 99 -4 0
-7 42 -6 93 1 50 -3 101 -9 112 -5 12 -9 62 -9 113 1 51 -2 95 -7 98 -9 5 -13
124 -4 124 2 0 35 -31 74 -69z m3541 -722 c0 -5 10 -7 23 -5 12 2 32 -4 45
-12 12 -8 22 -11 22 -7 0 4 7 2 15 -5 8 -6 18 -9 24 -6 5 4 16 -1 25 -9 8 -9
18 -16 20 -16 23 -3 46 -13 46 -21 0 -6 7 -8 15 -4 8 3 19 -3 25 -13 5 -10 21
-22 35 -25 14 -4 25 -10 25 -15 0 -5 20 -28 45 -52 25 -24 45 -49 45 -56 0 -7
9 -17 20 -23 11 -6 18 -15 15 -20 -3 -5 -1 -11 5 -15 5 -3 10 -15 10 -25 0
-11 8 -33 19 -50 10 -18 17 -44 15 -60 -2 -17 1 -30 6 -30 5 0 7 -50 4 -122
-7 -185 -8 -203 -17 -209 -4 -3 -9 -16 -10 -27 -1 -12 -5 -22 -9 -22 -4 0 -8
-11 -8 -24 0 -14 -5 -28 -11 -31 -6 -4 -8 -13 -5 -21 3 -8 -1 -17 -9 -20 -7
-3 -11 -12 -8 -20 3 -8 0 -14 -6 -14 -6 0 -10 -3 -9 -7 4 -12 -44 -103 -54
-103 -4 0 -8 -7 -8 -15 0 -8 -5 -15 -11 -15 -5 0 -8 -4 -5 -9 3 -5 -1 -12 -10
-15 -9 -4 -14 -9 -11 -12 3 -4 -33 -45 -82 -93 -102 -101 -127 -121 -135 -114
-3 4 -6 1 -6 -5 0 -7 -7 -12 -15 -12 -9 0 -18 -6 -21 -13 -3 -8 -20 -20 -39
-27 -19 -8 -35 -17 -35 -22 0 -4 -7 -5 -15 -2 -8 4 -15 2 -15 -4 0 -6 -13 -13
-30 -17 -16 -4 -30 -11 -30 -16 0 -5 -11 -9 -24 -9 -14 0 -27 -4 -30 -9 -4 -5
-14 -8 -24 -7 -13 2 -18 14 -19 52 -2 27 0 56 4 64 8 20 10 27 12 45 0 8 8 15
16 15 8 0 15 5 15 11 0 5 5 7 11 4 6 -4 17 2 25 14 9 12 19 19 23 16 5 -2 16
4 26 15 10 11 22 20 27 20 11 0 76 64 105 105 25 34 68 110 62 110 -2 0 6 14
19 32 12 17 22 45 22 63 0 17 4 29 8 26 4 -2 8 7 9 22 0 15 5 44 11 65 6 23 6
37 0 37 -5 0 -7 4 -4 9 10 16 8 171 -2 184 -5 6 -8 22 -7 35 1 12 -2 22 -7 22
-4 0 -8 9 -8 20 0 11 -4 20 -9 20 -5 0 -12 12 -15 26 -10 39 -103 124 -174
159 l-60 30 1 48 c0 27 4 50 9 53 4 3 8 41 8 85 0 46 4 79 10 79 6 0 9 3 9 8
-1 4 -1 10 0 14 2 10 61 7 61 -3z m-26 -542 c14 -21 26 -48 26 -61 0 -12 3
-26 7 -30 10 -10 11 -196 1 -196 -4 0 -8 -12 -8 -27 0 -16 -9 -43 -20 -60 -11
-18 -17 -33 -14 -33 3 0 -4 -13 -16 -30 -12 -16 -18 -30 -14 -30 4 0 -3 -11
-16 -25 -24 -25 -50 -24 -29 1 6 8 13 49 13 92 1 42 5 84 9 92 3 8 8 53 11
100 3 47 7 121 9 165 3 44 5 82 6 84 2 6 7 0 35 -42z m-1208 -472 c13 -12 24
-27 24 -32 0 -5 44 -51 98 -102 116 -111 124 -117 151 -126 12 -3 21 -11 21
-16 0 -5 7 -9 15 -9 8 0 15 -4 15 -10 0 -5 6 -7 14 -4 7 3 16 -2 19 -10 4 -9
14 -12 26 -9 12 3 21 1 21 -4 0 -5 8 -9 19 -10 32 -3 91 -31 92 -45 2 -38 -3
-153 -7 -158 -8 -8 -69 -5 -75 3 -3 5 -26 10 -50 12 -64 6 -109 16 -109 25 0
4 -13 6 -30 4 -16 -2 -30 1 -30 6 0 6 -13 10 -29 10 -17 0 -33 5 -36 10 -4 6
-10 8 -14 6 -4 -3 -24 4 -44 14 -20 11 -40 19 -44 18 -9 -2 -85 34 -93 43 -3
4 -16 10 -30 14 -34 11 -48 27 -43 50 3 11 7 35 10 53 3 17 9 32 13 32 5 0 7
15 6 33 -2 17 1 38 7 45 6 7 11 25 13 40 8 86 14 122 25 148 10 24 13 26 17
10 2 -10 15 -29 28 -41z"/>
</g>
</svg>
